<svg width="318" height="441" viewBox="0 0 318 441" fill="none" xmlns="http://www.w3.org/2000/svg">
<g filter="url(#filter0_d_176_238)">
<rect x="28.5996" y="5.6001" width="260" height="383" rx="15" fill="white" shape-rendering="crispEdges"/>
<rect x="28.8496" y="5.8501" width="259.5" height="382.5" rx="14.75" stroke="#969696" stroke-width="0.5" shape-rendering="crispEdges"/>
<g clip-path="url(#paint0_diamond_176_238_clip_path)" data-figma-skip-parse="true"><g transform="matrix(0.125143 -0.0587 0.0384463 0.215179 148.42 70.8001)"><rect x="0" y="0" width="851.604" height="276.379" fill="url(#paint0_diamond_176_238)" opacity="1" shape-rendering="crispEdges"/><rect x="0" y="0" width="851.604" height="276.379" transform="scale(1 -1)" fill="url(#paint0_diamond_176_238)" opacity="1" shape-rendering="crispEdges"/><rect x="0" y="0" width="851.604" height="276.379" transform="scale(-1 1)" fill="url(#paint0_diamond_176_238)" opacity="1" shape-rendering="crispEdges"/><rect x="0" y="0" width="851.604" height="276.379" transform="scale(-1)" fill="url(#paint0_diamond_176_238)" opacity="1" shape-rendering="crispEdges"/></g></g><path d="M85.1573 65.6001H80.5167V52.5092H85.1957C86.5124 52.5092 87.646 52.7713 88.5962 53.2954C89.5465 53.8153 90.2773 54.5632 90.7887 55.539C91.3043 56.5149 91.5621 57.6825 91.5621 59.0419C91.5621 60.4055 91.3043 61.5774 90.7887 62.5575C90.2773 63.5376 89.5423 64.2897 88.5835 64.8139C87.6289 65.338 86.4869 65.6001 85.1573 65.6001ZM83.2844 63.2286H85.0423C85.8604 63.2286 86.5487 63.0838 87.1069 62.794C87.6694 62.5 88.0913 62.0461 88.3725 61.4325C88.658 60.8146 88.8008 60.0177 88.8008 59.0419C88.8008 58.0745 88.658 57.284 88.3725 56.6704C88.0913 56.0568 87.6715 55.6051 87.1133 55.3153C86.555 55.0255 85.8668 54.8806 85.0487 54.8806H83.2844V63.2286ZM96.361 65.7855C95.7346 65.7855 95.1763 65.6768 94.6863 65.4595C94.1962 65.2379 93.8084 64.9119 93.5229 64.4815C93.2417 64.0468 93.101 63.5056 93.101 62.8579C93.101 62.3125 93.2012 61.8544 93.4015 61.4836C93.6017 61.1129 93.8745 60.8146 94.2196 60.5887C94.5648 60.3629 94.9569 60.1924 95.3958 60.0774C95.839 59.9623 96.3034 59.8813 96.7892 59.8345C97.3603 59.7748 97.8205 59.7194 98.1699 59.6683C98.5194 59.6129 98.7729 59.5319 98.9306 59.4254C99.0882 59.3188 99.1671 59.1612 99.1671 58.9524V58.914C99.1671 58.5092 99.0392 58.196 98.7836 57.9744C98.5321 57.7528 98.1742 57.642 97.7097 57.642C97.2196 57.642 96.8297 57.7507 96.54 57.968C96.2502 58.1811 96.0584 58.4495 95.9647 58.7734L93.4462 58.5688C93.574 57.9723 93.8255 57.4566 94.2005 57.022C94.5755 56.5831 95.0591 56.2464 95.6515 56.012C96.248 55.7734 96.9384 55.6541 97.7225 55.6541C98.2679 55.6541 98.79 55.718 99.2885 55.8458C99.7914 55.9737 100.237 56.1718 100.624 56.4403C101.017 56.7088 101.325 57.0539 101.551 57.4758C101.777 57.8934 101.89 58.3941 101.89 58.9779V65.6001H99.3077V64.2386H99.231C99.0733 64.5454 98.8624 64.816 98.5982 65.0504C98.334 65.2805 98.0165 65.4616 97.6458 65.5937C97.275 65.7215 96.8468 65.7855 96.361 65.7855ZM97.1408 63.9062C97.5414 63.9062 97.8951 63.8274 98.2019 63.6697C98.5087 63.5078 98.7495 63.2904 98.9242 63.0177C99.0989 62.745 99.1863 62.436 99.1863 62.0909V61.049C99.101 61.1044 98.9838 61.1555 98.8347 61.2024C98.6898 61.245 98.5257 61.2855 98.3425 61.3238C98.1593 61.3579 97.976 61.3899 97.7928 61.4197C97.6096 61.4453 97.4434 61.4687 97.2942 61.49C96.9746 61.5369 96.6955 61.6115 96.4569 61.7137C96.2182 61.816 96.0328 61.9545 95.9007 62.1292C95.7686 62.2997 95.7026 62.5127 95.7026 62.7684C95.7026 63.1392 95.8368 63.4225 96.1053 63.6186C96.378 63.8103 96.7232 63.9062 97.1408 63.9062ZM109.225 55.7819V57.8274H103.312V55.7819H109.225ZM104.655 53.4296H107.378V62.5831C107.378 62.8345 107.416 63.0305 107.493 63.1711C107.569 63.3075 107.676 63.4034 107.812 63.4588C107.953 63.5142 108.115 63.5419 108.298 63.5419C108.426 63.5419 108.554 63.5312 108.682 63.5099C108.809 63.4843 108.907 63.4652 108.976 63.4524L109.404 65.4786C109.268 65.5213 109.076 65.5703 108.829 65.6257C108.581 65.6853 108.281 65.7215 107.927 65.7343C107.271 65.7599 106.696 65.6725 106.202 65.4723C105.711 65.272 105.33 64.9609 105.057 64.539C104.785 64.1171 104.65 63.5845 104.655 62.941V53.4296ZM113.798 65.7855C113.172 65.7855 112.614 65.6768 112.124 65.4595C111.634 65.2379 111.246 64.9119 110.96 64.4815C110.679 64.0468 110.539 63.5056 110.539 62.8579C110.539 62.3125 110.639 61.8544 110.839 61.4836C111.039 61.1129 111.312 60.8146 111.657 60.5887C112.002 60.3629 112.394 60.1924 112.833 60.0774C113.276 59.9623 113.741 59.8813 114.227 59.8345C114.798 59.7748 115.258 59.7194 115.607 59.6683C115.957 59.6129 116.21 59.5319 116.368 59.4254C116.526 59.3188 116.605 59.1612 116.605 58.9524V58.914C116.605 58.5092 116.477 58.196 116.221 57.9744C115.97 57.7528 115.612 57.642 115.147 57.642C114.657 57.642 114.267 57.7507 113.977 57.968C113.688 58.1811 113.496 58.4495 113.402 58.7734L110.884 58.5688C111.012 57.9723 111.263 57.4566 111.638 57.022C112.013 56.5831 112.497 56.2464 113.089 56.012C113.686 55.7734 114.376 55.6541 115.16 55.6541C115.705 55.6541 116.227 55.718 116.726 55.8458C117.229 55.9737 117.674 56.1718 118.062 56.4403C118.454 56.7088 118.763 57.0539 118.989 57.4758C119.215 57.8934 119.328 58.3941 119.328 58.9779V65.6001H116.745V64.2386H116.669C116.511 64.5454 116.3 64.816 116.036 65.0504C115.771 65.2805 115.454 65.4616 115.083 65.5937C114.713 65.7215 114.284 65.7855 113.798 65.7855ZM114.578 63.9062C114.979 63.9062 115.333 63.8274 115.639 63.6697C115.946 63.5078 116.187 63.2904 116.362 63.0177C116.536 62.745 116.624 62.436 116.624 62.0909V61.049C116.539 61.1044 116.421 61.1555 116.272 61.2024C116.127 61.245 115.963 61.2855 115.78 61.3238C115.597 61.3579 115.414 61.3899 115.23 61.4197C115.047 61.4453 114.881 61.4687 114.732 61.49C114.412 61.5369 114.133 61.6115 113.894 61.7137C113.656 61.816 113.47 61.9545 113.338 62.1292C113.206 62.2997 113.14 62.5127 113.14 62.7684C113.14 63.1392 113.274 63.4225 113.543 63.6186C113.816 63.8103 114.161 63.9062 114.578 63.9062ZM130.598 61.049H132.951L134.133 62.5703L135.297 63.9254L137.489 66.674H134.907L133.398 64.8203L132.625 63.7208L130.598 61.049ZM137.687 59.0546C137.687 60.4822 137.417 61.6967 136.875 62.6981C136.338 63.6995 135.605 64.4644 134.676 64.9929C133.752 65.517 132.712 65.7791 131.557 65.7791C130.394 65.7791 129.35 65.5149 128.425 64.9865C127.5 64.4581 126.77 63.6931 126.233 62.6917C125.696 61.6903 125.427 60.4779 125.427 59.0546C125.427 57.6271 125.696 56.4126 126.233 55.4112C126.77 54.4098 127.5 53.647 128.425 53.1228C129.35 52.5944 130.394 52.3302 131.557 52.3302C132.712 52.3302 133.752 52.5944 134.676 53.1228C135.605 53.647 136.338 54.4098 136.875 55.4112C137.417 56.4126 137.687 57.6271 137.687 59.0546ZM134.881 59.0546C134.881 58.1299 134.743 57.3501 134.466 56.7152C134.193 56.0802 133.807 55.5987 133.309 55.2706C132.81 54.9424 132.226 54.7784 131.557 54.7784C130.888 54.7784 130.304 54.9424 129.806 55.2706C129.307 55.5987 128.919 56.0802 128.642 56.7152C128.37 57.3501 128.233 58.1299 128.233 59.0546C128.233 59.9794 128.37 60.7592 128.642 61.3941C128.919 62.0291 129.307 62.5106 129.806 62.8387C130.304 63.1669 130.888 63.3309 131.557 63.3309C132.226 63.3309 132.81 63.1669 133.309 62.8387C133.807 62.5106 134.193 62.0291 134.466 61.3941C134.743 60.7592 134.881 59.9794 134.881 59.0546ZM145.982 61.4197V55.7819H148.705V65.6001H146.091V63.8167H145.989C145.767 64.392 145.399 64.8544 144.883 65.2038C144.372 65.5532 143.747 65.7279 143.01 65.7279C142.354 65.7279 141.776 65.5788 141.278 65.2805C140.779 64.9822 140.389 64.5582 140.108 64.0085C139.831 63.4588 139.691 62.8004 139.686 62.0333V55.7819H142.409V61.5475C142.414 62.1271 142.569 62.5852 142.876 62.9218C143.183 63.2585 143.594 63.4268 144.11 63.4268C144.438 63.4268 144.744 63.3522 145.03 63.2031C145.316 63.0497 145.546 62.8238 145.72 62.5255C145.899 62.2272 145.987 61.8586 145.982 61.4197ZM153.683 65.7855C153.057 65.7855 152.499 65.6768 152.009 65.4595C151.518 65.2379 151.131 64.9119 150.845 64.4815C150.564 64.0468 150.423 63.5056 150.423 62.8579C150.423 62.3125 150.523 61.8544 150.724 61.4836C150.924 61.1129 151.197 60.8146 151.542 60.5887C151.887 60.3629 152.279 60.1924 152.718 60.0774C153.161 59.9623 153.626 59.8813 154.112 59.8345C154.683 59.7748 155.143 59.7194 155.492 59.6683C155.842 59.6129 156.095 59.5319 156.253 59.4254C156.411 59.3188 156.489 59.1612 156.489 58.9524V58.914C156.489 58.5092 156.362 58.196 156.106 57.9744C155.854 57.7528 155.496 57.642 155.032 57.642C154.542 57.642 154.152 57.7507 153.862 57.968C153.572 58.1811 153.381 58.4495 153.287 58.7734L150.768 58.5688C150.896 57.9723 151.148 57.4566 151.523 57.022C151.898 56.5831 152.381 56.2464 152.974 56.012C153.57 55.7734 154.261 55.6541 155.045 55.6541C155.59 55.6541 156.112 55.718 156.611 55.8458C157.114 55.9737 157.559 56.1718 157.947 56.4403C158.339 56.7088 158.648 57.0539 158.874 57.4758C159.099 57.8934 159.212 58.3941 159.212 58.9779V65.6001H156.63V64.2386H156.553C156.396 64.5454 156.185 64.816 155.92 65.0504C155.656 65.2805 155.339 65.4616 154.968 65.5937C154.597 65.7215 154.169 65.7855 153.683 65.7855ZM154.463 63.9062C154.864 63.9062 155.217 63.8274 155.524 63.6697C155.831 63.5078 156.072 63.2904 156.246 63.0177C156.421 62.745 156.509 62.436 156.509 62.0909V61.049C156.423 61.1044 156.306 61.1555 156.157 61.2024C156.012 61.245 155.848 61.2855 155.665 61.3238C155.482 61.3579 155.298 61.3899 155.115 61.4197C154.932 61.4453 154.766 61.4687 154.616 61.49C154.297 61.5369 154.018 61.6115 153.779 61.7137C153.54 61.816 153.355 61.9545 153.223 62.1292C153.091 62.2997 153.025 62.5127 153.025 62.7684C153.025 63.1392 153.159 63.4225 153.428 63.6186C153.7 63.8103 154.045 63.9062 154.463 63.9062ZM164.048 52.5092V65.6001H161.325V52.5092H164.048ZM166.229 65.6001V55.7819H168.952V65.6001H166.229ZM167.597 54.5163C167.192 54.5163 166.845 54.3821 166.555 54.1136C166.27 53.8409 166.127 53.5149 166.127 53.1356C166.127 52.7606 166.27 52.4389 166.555 52.1704C166.845 51.8977 167.192 51.7613 167.597 51.7613C168.002 51.7613 168.347 51.8977 168.633 52.1704C168.922 52.4389 169.067 52.7606 169.067 53.1356C169.067 53.5149 168.922 53.8409 168.633 54.1136C168.347 54.3821 168.002 54.5163 167.597 54.5163ZM176.356 55.7819V57.8274H170.443V55.7819H176.356ZM171.786 53.4296H174.509V62.5831C174.509 62.8345 174.547 63.0305 174.624 63.1711C174.7 63.3075 174.807 63.4034 174.943 63.4588C175.084 63.5142 175.246 63.5419 175.429 63.5419C175.557 63.5419 175.685 63.5312 175.812 63.5099C175.94 63.4843 176.038 63.4652 176.107 63.4524L176.535 65.4786C176.398 65.5213 176.207 65.5703 175.96 65.6257C175.712 65.6853 175.412 65.7215 175.058 65.7343C174.402 65.7599 173.827 65.6725 173.332 65.4723C172.842 65.272 172.461 64.9609 172.188 64.539C171.915 64.1171 171.781 63.5845 171.786 62.941V53.4296ZM179.811 69.2819C179.466 69.2819 179.142 69.2542 178.839 69.1988C178.541 69.1477 178.294 69.0816 178.098 69.0007L178.711 66.968C179.031 67.066 179.319 67.1193 179.574 67.1278C179.834 67.1363 180.058 67.0767 180.245 66.9488C180.437 66.821 180.593 66.6036 180.712 66.2968L180.872 65.8813L177.35 55.7819H180.213L182.246 62.9921H182.348L184.4 55.7819H187.283L183.467 66.6612C183.284 67.1896 183.034 67.6498 182.719 68.0419C182.408 68.4382 182.014 68.7429 181.537 68.9559C181.059 69.1733 180.484 69.2819 179.811 69.2819ZM199.995 56.2741C199.944 55.7585 199.725 55.3579 199.337 55.0724C198.949 54.7869 198.423 54.6441 197.758 54.6441C197.306 54.6441 196.925 54.7081 196.614 54.8359C196.303 54.9595 196.064 55.1321 195.898 55.3536C195.736 55.5752 195.655 55.8267 195.655 56.1079C195.646 56.3423 195.695 56.5468 195.802 56.7215C195.913 56.8963 196.064 57.0475 196.256 57.1754C196.448 57.299 196.669 57.4076 196.921 57.5014C197.172 57.5909 197.441 57.6676 197.726 57.7315L198.902 58.0127C199.473 58.1406 199.997 58.311 200.475 58.5241C200.952 58.7372 201.365 58.9992 201.715 59.3103C202.064 59.6214 202.335 59.9879 202.526 60.4098C202.722 60.8316 202.823 61.3153 202.827 61.8608C202.823 62.6619 202.618 63.3565 202.213 63.9446C201.813 64.5284 201.233 64.9822 200.475 65.3061C199.72 65.6257 198.811 65.7855 197.745 65.7855C196.688 65.7855 195.768 65.6235 194.984 65.2997C194.204 64.9758 193.595 64.4964 193.156 63.8615C192.721 63.2223 192.493 62.4318 192.472 61.49H195.15C195.18 61.9289 195.306 62.2954 195.527 62.5894C195.753 62.8792 196.053 63.0987 196.428 63.2478C196.808 63.3927 197.236 63.4652 197.713 63.4652C198.182 63.4652 198.589 63.397 198.934 63.2606C199.284 63.1242 199.554 62.9346 199.746 62.6917C199.938 62.4488 200.034 62.1697 200.034 61.8544C200.034 61.5603 199.946 61.3132 199.771 61.1129C199.601 60.9126 199.35 60.7421 199.017 60.6015C198.689 60.4609 198.286 60.3331 197.809 60.218L196.384 59.86C195.28 59.5916 194.409 59.1718 193.769 58.6008C193.13 58.0298 192.813 57.2606 192.817 56.2933C192.813 55.5007 193.024 54.8082 193.45 54.2159C193.88 53.6235 194.47 53.1612 195.22 52.8288C195.97 52.4964 196.823 52.3302 197.777 52.3302C198.749 52.3302 199.597 52.4964 200.321 52.8288C201.05 53.1612 201.617 53.6235 202.021 54.2159C202.426 54.8082 202.635 55.4943 202.648 56.2741H199.995ZM209.074 65.7919C208.068 65.7919 207.203 65.5788 206.478 65.1527C205.758 64.7223 205.204 64.1257 204.816 63.3629C204.433 62.6001 204.241 61.7223 204.241 60.7294C204.241 59.7237 204.435 58.8416 204.823 58.0831C205.215 57.3203 205.771 56.7258 206.491 56.2997C207.211 55.8693 208.068 55.6541 209.061 55.6541C209.917 55.6541 210.667 55.8096 211.311 56.1207C211.954 56.4318 212.463 56.8686 212.838 57.4311C213.213 57.9936 213.42 58.6541 213.458 59.4126H210.889C210.816 58.9225 210.625 58.5284 210.314 58.2301C210.007 57.9275 209.604 57.7762 209.105 57.7762C208.684 57.7762 208.315 57.8913 208 58.1214C207.689 58.3473 207.446 58.6775 207.271 59.1122C207.096 59.5468 207.009 60.0731 207.009 60.691C207.009 61.3174 207.094 61.8501 207.265 62.289C207.439 62.7279 207.684 63.0625 208 63.2926C208.315 63.5227 208.684 63.6377 209.105 63.6377C209.417 63.6377 209.696 63.5738 209.943 63.446C210.194 63.3181 210.401 63.1328 210.563 62.8899C210.729 62.6427 210.838 62.3465 210.889 62.0014H213.458C213.416 62.7514 213.211 63.4119 212.845 63.9829C212.483 64.5497 211.982 64.9929 211.343 65.3125C210.703 65.6321 209.947 65.7919 209.074 65.7919ZM219.638 65.7919C218.645 65.7919 217.786 65.5809 217.062 65.159C216.342 64.7329 215.786 64.1406 215.394 63.3821C215.002 62.6193 214.806 61.735 214.806 60.7294C214.806 59.7152 215.002 58.8288 215.394 58.0703C215.786 57.3075 216.342 56.7152 217.062 56.2933C217.786 55.8671 218.645 55.6541 219.638 55.6541C220.631 55.6541 221.487 55.8671 222.208 56.2933C222.932 56.7152 223.49 57.3075 223.882 58.0703C224.274 58.8288 224.47 59.7152 224.47 60.7294C224.47 61.735 224.274 62.6193 223.882 63.3821C223.49 64.1406 222.932 64.7329 222.208 65.159C221.487 65.5809 220.631 65.7919 219.638 65.7919ZM219.651 63.6825C220.102 63.6825 220.48 63.5546 220.782 63.299C221.085 63.039 221.313 62.6853 221.466 62.2379C221.624 61.7904 221.703 61.2812 221.703 60.7102C221.703 60.1392 221.624 59.6299 221.466 59.1825C221.313 58.735 221.085 58.3813 220.782 58.1214C220.48 57.8615 220.102 57.7315 219.651 57.7315C219.195 57.7315 218.811 57.8615 218.5 58.1214C218.193 58.3813 217.961 58.735 217.803 59.1825C217.65 59.6299 217.573 60.1392 217.573 60.7102C217.573 61.2812 217.65 61.7904 217.803 62.2379C217.961 62.6853 218.193 63.039 218.5 63.299C218.811 63.5546 219.195 63.6825 219.651 63.6825ZM226.241 65.6001V55.7819H228.881V57.495H228.983C229.162 56.8856 229.463 56.4254 229.884 56.1143C230.306 55.799 230.792 55.6413 231.342 55.6413C231.478 55.6413 231.625 55.6498 231.783 55.6669C231.941 55.6839 232.079 55.7073 232.198 55.7372V58.1534C232.07 58.115 231.894 58.0809 231.668 58.0511C231.442 58.0213 231.235 58.0063 231.048 58.0063C230.647 58.0063 230.289 58.0937 229.974 58.2684C229.663 58.4389 229.416 58.6775 229.232 58.9843C229.053 59.2911 228.964 59.6448 228.964 60.0454V65.6001H226.241ZM237.624 65.7919C236.614 65.7919 235.744 65.5873 235.016 65.1782C234.291 64.7649 233.733 64.1811 233.341 63.4268C232.949 62.6683 232.753 61.7713 232.753 60.7358C232.753 59.7258 232.949 58.8394 233.341 58.0767C233.733 57.3139 234.285 56.7194 234.996 56.2933C235.712 55.8671 236.552 55.6541 237.515 55.6541C238.163 55.6541 238.766 55.7585 239.324 55.9673C239.886 56.1718 240.376 56.4808 240.794 56.8941C241.216 57.3075 241.544 57.8274 241.778 58.4538C242.013 59.0759 242.13 59.8046 242.13 60.6399V61.3877H233.839V59.7002H239.567C239.567 59.3082 239.482 58.9609 239.311 58.6583C239.141 58.3558 238.904 58.1193 238.602 57.9488C238.303 57.7741 237.956 57.6867 237.56 57.6867C237.146 57.6867 236.78 57.7826 236.46 57.9744C236.145 58.1619 235.898 58.4154 235.719 58.735C235.54 59.0504 235.448 59.4019 235.444 59.7897V61.3941C235.444 61.8799 235.533 62.2997 235.712 62.6534C235.896 63.0071 236.153 63.2798 236.486 63.4715C236.818 63.6633 237.212 63.7592 237.668 63.7592C237.971 63.7592 238.248 63.7166 238.499 63.6313C238.751 63.5461 238.966 63.4183 239.145 63.2478C239.324 63.0774 239.46 62.8686 239.554 62.6214L242.072 62.7876C241.945 63.3927 241.683 63.9211 241.286 64.3728C240.894 64.8203 240.387 65.1697 239.765 65.4211C239.147 65.6683 238.433 65.7919 237.624 65.7919Z" data-figma-gradient-fill="{&#34;type&#34;:&#34;GRADIENT_DIAMOND&#34;,&#34;stops&#34;:[{&#34;color&#34;:{&#34;r&#34;:0.10196078568696976,&#34;g&#34;:0.23529411852359772,&#34;b&#34;:0.43137255311012268,&#34;a&#34;:1.0},&#34;position&#34;:0.58050161600112915},{&#34;color&#34;:{&#34;r&#34;:0.25098040699958801,&#34;g&#34;:0.66666668653488159,&#34;b&#34;:0.80392158031463623,&#34;a&#34;:1.0},&#34;position&#34;:1.0}],&#34;stopsVar&#34;:[{&#34;color&#34;:{&#34;r&#34;:0.10196078568696976,&#34;g&#34;:0.23529411852359772,&#34;b&#34;:0.43137255311012268,&#34;a&#34;:1.0},&#34;position&#34;:0.58050161600112915},{&#34;color&#34;:{&#34;r&#34;:0.25098040699958801,&#34;g&#34;:0.66666668653488159,&#34;b&#34;:0.80392158031463623,&#34;a&#34;:1.0},&#34;position&#34;:1.0}],&#34;transform&#34;:{&#34;m00&#34;:250.28556823730469,&#34;m01&#34;:76.892509460449219,&#34;m02&#34;:-15.169353485107422,&#34;m10&#34;:-117.39998626708984,&#34;m11&#34;:430.35726928710938,&#34;m12&#34;:-85.678550720214844},&#34;opacity&#34;:1.0,&#34;blendMode&#34;:&#34;NORMAL&#34;,&#34;visible&#34;:true}"/>
<circle cx="161.1" cy="162.1" r="78.5" fill="#F2F3F7"/>
<path d="M94.2236 203.208C83.6564 186.017 80.1153 165.416 84.3355 145.683C88.5556 125.95 100.213 108.6 116.887 97.2348C133.562 85.8695 153.972 81.3619 173.882 84.6478C193.792 87.9337 211.672 98.7607 223.81 114.881C235.948 131.002 241.412 151.177 239.068 171.22C236.724 191.263 226.751 209.633 211.22 222.517C195.689 235.401 175.794 241.809 155.663 240.412C135.532 239.014 116.712 229.918 103.111 215.011L161.1 162.1L94.2236 203.208Z" fill="url(#paint1_linear_176_238)"/>
<circle cx="161.6" cy="162.6" r="70" fill="white"/>
<g clip-path="url(#paint2_diamond_176_238_clip_path)" data-figma-skip-parse="true"><g transform="matrix(0.0500571 -0.120661 0.0153785 0.442312 154.528 190.289)"><rect x="0" y="0" width="861.987" height="277.195" fill="url(#paint2_diamond_176_238)" opacity="1" shape-rendering="crispEdges"/><rect x="0" y="0" width="861.987" height="277.195" transform="scale(1 -1)" fill="url(#paint2_diamond_176_238)" opacity="1" shape-rendering="crispEdges"/><rect x="0" y="0" width="861.987" height="277.195" transform="scale(-1 1)" fill="url(#paint2_diamond_176_238)" opacity="1" shape-rendering="crispEdges"/><rect x="0" y="0" width="861.987" height="277.195" transform="scale(-1)" fill="url(#paint2_diamond_176_238)" opacity="1" shape-rendering="crispEdges"/></g></g><path d="M132.195 151.06C133.541 151.06 134.837 151.286 136.081 151.738C137.334 152.19 138.45 152.91 139.431 153.898C140.419 154.887 141.199 156.2 141.77 157.836C142.35 159.464 142.644 161.462 142.652 163.832C142.652 166.056 142.401 168.042 141.898 169.789C141.404 171.528 140.692 173.006 139.763 174.225C138.834 175.444 137.713 176.373 136.401 177.012C135.088 177.643 133.622 177.958 132.003 177.958C130.256 177.958 128.713 177.621 127.375 176.948C126.037 176.266 124.959 175.342 124.141 174.174C123.331 172.998 122.841 171.677 122.671 170.211H128.129C128.343 171.165 128.79 171.907 129.472 172.435C130.154 172.955 130.997 173.215 132.003 173.215C133.708 173.215 135.003 172.474 135.889 170.991C136.776 169.499 137.223 167.458 137.232 164.867H137.053C136.661 165.634 136.132 166.295 135.468 166.849C134.803 167.394 134.04 167.816 133.179 168.114C132.327 168.413 131.419 168.562 130.456 168.562C128.914 168.562 127.537 168.2 126.327 167.475C125.117 166.751 124.162 165.754 123.463 164.484C122.764 163.214 122.415 161.765 122.415 160.137C122.406 158.381 122.811 156.817 123.629 155.445C124.448 154.073 125.59 152.999 127.056 152.224C128.53 151.44 130.243 151.052 132.195 151.06ZM132.233 155.407C131.372 155.407 130.605 155.611 129.932 156.021C129.267 156.43 128.739 156.979 128.347 157.67C127.963 158.36 127.776 159.131 127.784 159.984C127.784 160.844 127.972 161.62 128.347 162.31C128.73 162.992 129.25 163.538 129.906 163.947C130.571 164.347 131.33 164.548 132.182 164.548C132.821 164.548 133.414 164.428 133.959 164.19C134.504 163.951 134.977 163.623 135.378 163.205C135.787 162.779 136.107 162.289 136.337 161.735C136.567 161.181 136.682 160.593 136.682 159.971C136.673 159.144 136.477 158.386 136.094 157.695C135.71 157.005 135.182 156.451 134.509 156.033C133.835 155.616 133.077 155.407 132.233 155.407ZM146.82 177.6L157.673 156.123V155.944H145.03V151.418H163.401V156.008L152.534 177.6H146.82ZM181.525 172.691V171.31C181.525 170.262 181.747 169.299 182.19 168.421C182.642 167.535 183.294 166.827 184.146 166.299C185.007 165.762 186.055 165.494 187.291 165.494C188.544 165.494 189.596 165.758 190.449 166.286C191.309 166.815 191.957 167.522 192.392 168.408C192.835 169.286 193.057 170.254 193.057 171.31V172.691C193.057 173.739 192.835 174.707 192.392 175.593C191.949 176.471 191.297 177.174 190.436 177.702C189.575 178.239 188.527 178.508 187.291 178.508C186.038 178.508 184.986 178.239 184.133 177.702C183.281 177.174 182.633 176.471 182.19 175.593C181.747 174.707 181.525 173.739 181.525 172.691ZM185.246 171.31V172.691C185.246 173.296 185.39 173.867 185.68 174.404C185.979 174.941 186.515 175.209 187.291 175.209C188.067 175.209 188.595 174.945 188.876 174.417C189.166 173.888 189.311 173.313 189.311 172.691V171.31C189.311 170.688 189.175 170.109 188.902 169.572C188.629 169.035 188.092 168.766 187.291 168.766C186.524 168.766 185.991 169.035 185.693 169.572C185.395 170.109 185.246 170.688 185.246 171.31ZM168.089 157.708V156.327C168.089 155.271 168.315 154.303 168.767 153.425C169.219 152.539 169.871 151.832 170.723 151.303C171.584 150.775 172.623 150.511 173.842 150.511C175.104 150.511 176.16 150.775 177.013 151.303C177.865 151.832 178.513 152.539 178.956 153.425C179.399 154.303 179.621 155.271 179.621 156.327V157.708C179.621 158.765 179.395 159.732 178.943 160.61C178.5 161.488 177.848 162.191 176.987 162.719C176.135 163.239 175.086 163.499 173.842 163.499C172.598 163.499 171.545 163.235 170.684 162.707C169.832 162.17 169.184 161.467 168.741 160.597C168.307 159.719 168.089 158.756 168.089 157.708ZM171.835 156.327V157.708C171.835 158.33 171.98 158.905 172.27 159.434C172.568 159.962 173.092 160.227 173.842 160.227C174.626 160.227 175.159 159.962 175.44 159.434C175.73 158.905 175.875 158.33 175.875 157.708V156.327C175.875 155.705 175.738 155.126 175.466 154.589C175.193 154.052 174.652 153.783 173.842 153.783C173.084 153.783 172.559 154.056 172.27 154.602C171.98 155.147 171.835 155.722 171.835 156.327ZM169.777 177.6L187.777 151.418H191.126L173.126 177.6H169.777Z" data-figma-gradient-fill="{&#34;type&#34;:&#34;GRADIENT_DIAMOND&#34;,&#34;stops&#34;:[{&#34;color&#34;:{&#34;r&#34;:0.10196078568696976,&#34;g&#34;:0.23529411852359772,&#34;b&#34;:0.43137255311012268,&#34;a&#34;:1.0},&#34;position&#34;:0.36635139584541321}],&#34;stopsVar&#34;:[{&#34;color&#34;:{&#34;r&#34;:0.10196078568696976,&#34;g&#34;:0.23529411852359772,&#34;b&#34;:0.43137255311012268,&#34;a&#34;:1.0},&#34;position&#34;:0.36635139584541321}],&#34;transform&#34;:{&#34;m00&#34;:100.11422729492188,&#34;m01&#34;:30.757005691528320,&#34;m02&#34;:89.092025756835938,&#34;m10&#34;:-241.32218933105469,&#34;m11&#34;:884.6232910156250,&#34;m12&#34;:-131.3615722656250},&#34;opacity&#34;:1.0,&#34;blendMode&#34;:&#34;NORMAL&#34;,&#34;visible&#34;:true}"/>
<path d="M147.31 274.741C147.221 274.43 147.095 274.155 146.933 273.916C146.771 273.673 146.573 273.469 146.339 273.303C146.109 273.132 145.844 273.002 145.546 272.913C145.252 272.823 144.926 272.778 144.568 272.778C143.899 272.778 143.311 272.945 142.804 273.277C142.301 273.609 141.909 274.093 141.628 274.728C141.347 275.359 141.206 276.13 141.206 277.042C141.206 277.954 141.344 278.729 141.621 279.369C141.898 280.008 142.29 280.496 142.798 280.832C143.305 281.165 143.903 281.331 144.594 281.331C145.22 281.331 145.755 281.22 146.198 280.999C146.646 280.773 146.987 280.455 147.221 280.046C147.46 279.637 147.579 279.153 147.579 278.595L148.141 278.678H144.766V276.594H150.244V278.244C150.244 279.394 150.001 280.383 149.516 281.209C149.03 282.032 148.361 282.667 147.509 283.114C146.656 283.557 145.68 283.779 144.581 283.779C143.354 283.779 142.276 283.508 141.347 282.967C140.418 282.422 139.693 281.648 139.173 280.647C138.658 279.641 138.4 278.448 138.4 277.067C138.4 276.006 138.553 275.06 138.86 274.229C139.171 273.394 139.606 272.687 140.164 272.107C140.722 271.528 141.372 271.087 142.114 270.784C142.855 270.481 143.658 270.33 144.523 270.33C145.265 270.33 145.955 270.439 146.594 270.656C147.234 270.869 147.8 271.172 148.295 271.564C148.793 271.956 149.2 272.423 149.516 272.964C149.831 273.501 150.033 274.093 150.123 274.741H147.31ZM156.708 283.792C155.715 283.792 154.857 283.581 154.132 283.159C153.412 282.733 152.856 282.141 152.464 281.382C152.072 280.619 151.876 279.735 151.876 278.729C151.876 277.715 152.072 276.829 152.464 276.07C152.856 275.307 153.412 274.715 154.132 274.293C154.857 273.867 155.715 273.654 156.708 273.654C157.701 273.654 158.558 273.867 159.278 274.293C160.002 274.715 160.561 275.307 160.953 276.07C161.345 276.829 161.541 277.715 161.541 278.729C161.541 279.735 161.345 280.619 160.953 281.382C160.561 282.141 160.002 282.733 159.278 283.159C158.558 283.581 157.701 283.792 156.708 283.792ZM156.721 281.682C157.173 281.682 157.55 281.555 157.852 281.299C158.155 281.039 158.383 280.685 158.536 280.238C158.694 279.79 158.773 279.281 158.773 278.71C158.773 278.139 158.694 277.63 158.536 277.182C158.383 276.735 158.155 276.381 157.852 276.121C157.55 275.861 157.173 275.731 156.721 275.731C156.265 275.731 155.882 275.861 155.57 276.121C155.264 276.381 155.031 276.735 154.874 277.182C154.72 277.63 154.644 278.139 154.644 278.71C154.644 279.281 154.72 279.79 154.874 280.238C155.031 280.685 155.264 281.039 155.57 281.299C155.882 281.555 156.265 281.682 156.721 281.682ZM167.747 283.792C166.754 283.792 165.896 283.581 165.171 283.159C164.451 282.733 163.895 282.141 163.503 281.382C163.111 280.619 162.915 279.735 162.915 278.729C162.915 277.715 163.111 276.829 163.503 276.07C163.895 275.307 164.451 274.715 165.171 274.293C165.896 273.867 166.754 273.654 167.747 273.654C168.74 273.654 169.597 273.867 170.317 274.293C171.041 274.715 171.6 275.307 171.992 276.07C172.384 276.829 172.58 277.715 172.58 278.729C172.58 279.735 172.384 280.619 171.992 281.382C171.6 282.141 171.041 282.733 170.317 283.159C169.597 283.581 168.74 283.792 167.747 283.792ZM167.76 281.682C168.212 281.682 168.589 281.555 168.892 281.299C169.194 281.039 169.422 280.685 169.575 280.238C169.733 279.79 169.812 279.281 169.812 278.71C169.812 278.139 169.733 277.63 169.575 277.182C169.422 276.735 169.194 276.381 168.892 276.121C168.589 275.861 168.212 275.731 167.76 275.731C167.304 275.731 166.921 275.861 166.61 276.121C166.303 276.381 166.07 276.735 165.913 277.182C165.759 277.63 165.683 278.139 165.683 278.71C165.683 279.281 165.759 279.79 165.913 280.238C166.07 280.685 166.303 281.039 166.61 281.299C166.921 281.555 167.304 281.682 167.76 281.682ZM177.968 283.76C177.222 283.76 176.547 283.568 175.942 283.185C175.341 282.797 174.864 282.228 174.51 281.478C174.161 280.724 173.986 279.799 173.986 278.704C173.986 277.579 174.167 276.643 174.529 275.898C174.892 275.148 175.373 274.587 175.974 274.217C176.579 273.842 177.242 273.654 177.962 273.654C178.512 273.654 178.97 273.748 179.336 273.935C179.707 274.119 180.005 274.349 180.231 274.626C180.461 274.898 180.636 275.167 180.755 275.431H180.838V270.509H183.555V283.6H180.87V282.028H180.755C180.627 282.3 180.446 282.571 180.212 282.839C179.982 283.104 179.681 283.323 179.311 283.498C178.944 283.673 178.497 283.76 177.968 283.76ZM178.831 281.593C179.27 281.593 179.641 281.474 179.943 281.235C180.25 280.992 180.485 280.653 180.646 280.219C180.813 279.784 180.896 279.275 180.896 278.691C180.896 278.107 180.815 277.6 180.653 277.17C180.491 276.739 180.257 276.407 179.95 276.173C179.643 275.938 179.27 275.821 178.831 275.821C178.384 275.821 178.007 275.942 177.7 276.185C177.393 276.428 177.161 276.765 177.003 277.195C176.845 277.626 176.767 278.124 176.767 278.691C176.767 279.262 176.845 279.767 177.003 280.206C177.165 280.641 177.397 280.981 177.7 281.229C178.007 281.472 178.384 281.593 178.831 281.593Z" fill="url(#paint3_linear_176_238)" fill-opacity="0.78"/>
<path d="M77.9746 328.475V319.725M77.9746 319.725L73.5996 324.1M77.9746 319.725L82.3496 324.1" stroke="#40AACD" stroke-width="2" stroke-linecap="round" stroke-linejoin="round"/>
<path d="M96.8056 329.6V328.077L100.845 324.117C101.232 323.727 101.554 323.38 101.811 323.077C102.069 322.774 102.262 322.481 102.391 322.197C102.52 321.913 102.584 321.61 102.584 321.288C102.584 320.92 102.501 320.606 102.334 320.344C102.167 320.079 101.938 319.875 101.646 319.731C101.355 319.587 101.023 319.515 100.652 319.515C100.27 319.515 99.9344 319.594 99.6465 319.754C99.3586 319.909 99.1351 320.13 98.976 320.418C98.8207 320.706 98.7431 321.049 98.7431 321.447H96.7374C96.7374 320.708 96.906 320.066 97.2431 319.521C97.5802 318.975 98.0442 318.553 98.6351 318.254C99.2298 317.954 99.9116 317.805 100.681 317.805C101.461 317.805 102.146 317.95 102.737 318.242C103.328 318.534 103.787 318.933 104.112 319.441C104.442 319.949 104.607 320.528 104.607 321.18C104.607 321.615 104.523 322.043 104.357 322.464C104.19 322.884 103.896 323.35 103.476 323.861C103.059 324.373 102.474 324.992 101.72 325.719L99.7147 327.759V327.839H104.783V329.6H96.8056ZM111.044 329.822C110.109 329.822 109.306 329.585 108.635 329.111C107.968 328.634 107.455 327.947 107.095 327.049C106.739 326.147 106.561 325.062 106.561 323.793C106.565 322.524 106.745 321.445 107.101 320.555C107.461 319.661 107.974 318.979 108.641 318.509C109.311 318.039 110.112 317.805 111.044 317.805C111.976 317.805 112.777 318.039 113.448 318.509C114.118 318.979 114.631 319.661 114.987 320.555C115.347 321.449 115.527 322.528 115.527 323.793C115.527 325.066 115.347 326.153 114.987 327.055C114.631 327.952 114.118 328.638 113.448 329.111C112.781 329.585 111.98 329.822 111.044 329.822ZM111.044 328.043C111.771 328.043 112.345 327.685 112.766 326.969C113.19 326.25 113.402 325.191 113.402 323.793C113.402 322.869 113.306 322.093 113.112 321.464C112.919 320.835 112.646 320.361 112.294 320.043C111.942 319.721 111.525 319.56 111.044 319.56C110.321 319.56 109.749 319.92 109.328 320.64C108.908 321.356 108.696 322.407 108.692 323.793C108.688 324.721 108.781 325.502 108.97 326.134C109.164 326.767 109.436 327.244 109.789 327.566C110.141 327.884 110.559 328.043 111.044 328.043ZM123.637 327.418V326.805C123.637 326.354 123.731 325.939 123.921 325.56C124.114 325.182 124.394 324.877 124.762 324.646C125.129 324.414 125.574 324.299 126.097 324.299C126.635 324.299 127.085 324.414 127.449 324.646C127.813 324.873 128.087 325.176 128.273 325.555C128.462 325.933 128.557 326.35 128.557 326.805V327.418C128.557 327.869 128.462 328.284 128.273 328.663C128.084 329.041 127.805 329.346 127.438 329.577C127.074 329.808 126.627 329.924 126.097 329.924C125.566 329.924 125.118 329.808 124.75 329.577C124.383 329.346 124.104 329.041 123.915 328.663C123.729 328.284 123.637 327.869 123.637 327.418ZM125.119 326.805V327.418C125.119 327.718 125.191 327.992 125.335 328.242C125.479 328.492 125.733 328.617 126.097 328.617C126.464 328.617 126.716 328.494 126.852 328.248C126.993 327.998 127.063 327.721 127.063 327.418V326.805C127.063 326.502 126.996 326.225 126.864 325.975C126.731 325.721 126.476 325.594 126.097 325.594C125.741 325.594 125.489 325.721 125.341 325.975C125.193 326.225 125.119 326.502 125.119 326.805ZM117.722 320.759V320.146C117.722 319.691 117.818 319.274 118.012 318.896C118.205 318.517 118.485 318.214 118.852 317.986C119.22 317.755 119.665 317.64 120.188 317.64C120.722 317.64 121.171 317.755 121.534 317.986C121.902 318.214 122.178 318.517 122.364 318.896C122.549 319.274 122.642 319.691 122.642 320.146V320.759C122.642 321.214 122.548 321.63 122.358 322.009C122.173 322.384 121.896 322.685 121.529 322.913C121.161 323.14 120.714 323.254 120.188 323.254C119.654 323.254 119.203 323.14 118.835 322.913C118.472 322.685 118.195 322.382 118.006 322.004C117.816 321.625 117.722 321.21 117.722 320.759ZM119.216 320.146V320.759C119.216 321.062 119.286 321.339 119.426 321.589C119.57 321.835 119.824 321.958 120.188 321.958C120.551 321.958 120.801 321.835 120.938 321.589C121.078 321.339 121.148 321.062 121.148 320.759V320.146C121.148 319.843 121.082 319.566 120.949 319.316C120.816 319.062 120.563 318.935 120.188 318.935C119.828 318.935 119.576 319.062 119.432 319.316C119.288 319.57 119.216 319.846 119.216 320.146ZM118.369 329.6L126.369 317.964H127.79L119.79 329.6H118.369ZM142.702 320.873L139.594 329.6H137.321L134.213 320.873H136.406L138.412 327.356H138.503L140.514 320.873H142.702ZM151.023 323.18L149.148 323.384C149.095 323.195 149.002 323.017 148.869 322.85C148.741 322.683 148.566 322.549 148.347 322.447C148.127 322.344 147.858 322.293 147.54 322.293C147.112 322.293 146.752 322.386 146.46 322.572C146.173 322.757 146.03 322.998 146.034 323.293C146.03 323.547 146.123 323.754 146.313 323.913C146.506 324.072 146.824 324.202 147.267 324.305L148.756 324.623C149.582 324.801 150.195 325.083 150.597 325.469C151.002 325.856 151.207 326.361 151.21 326.986C151.207 327.536 151.046 328.021 150.727 328.441C150.413 328.858 149.976 329.183 149.415 329.418C148.854 329.653 148.21 329.771 147.483 329.771C146.415 329.771 145.555 329.547 144.904 329.1C144.252 328.649 143.864 328.022 143.739 327.219L145.744 327.026C145.835 327.42 146.029 327.718 146.324 327.918C146.619 328.119 147.004 328.219 147.477 328.219C147.966 328.219 148.358 328.119 148.654 327.918C148.953 327.718 149.102 327.469 149.102 327.174C149.102 326.924 149.006 326.718 148.813 326.555C148.623 326.392 148.328 326.267 147.926 326.18L146.438 325.867C145.601 325.693 144.981 325.399 144.58 324.986C144.178 324.57 143.979 324.043 143.983 323.407C143.979 322.869 144.125 322.403 144.421 322.009C144.72 321.611 145.135 321.305 145.665 321.089C146.199 320.869 146.815 320.759 147.512 320.759C148.534 320.759 149.339 320.977 149.926 321.413C150.517 321.848 150.883 322.437 151.023 323.18ZM158.932 317.964V329.6H156.875V317.964H158.932ZM163.558 329.776C163.005 329.776 162.507 329.678 162.064 329.481C161.625 329.28 161.276 328.985 161.019 328.594C160.765 328.204 160.638 327.723 160.638 327.151C160.638 326.659 160.729 326.252 160.911 325.93C161.093 325.608 161.341 325.35 161.655 325.157C161.969 324.964 162.324 324.818 162.718 324.719C163.115 324.617 163.526 324.543 163.95 324.498C164.462 324.445 164.877 324.397 165.195 324.356C165.513 324.31 165.744 324.242 165.888 324.151C166.036 324.057 166.11 323.911 166.11 323.714V323.68C166.11 323.252 165.983 322.92 165.729 322.685C165.475 322.45 165.11 322.333 164.632 322.333C164.128 322.333 163.729 322.443 163.433 322.663C163.142 322.882 162.945 323.142 162.843 323.441L160.922 323.168C161.074 322.638 161.324 322.195 161.672 321.839C162.021 321.479 162.447 321.21 162.95 321.032C163.454 320.85 164.011 320.759 164.621 320.759C165.041 320.759 165.46 320.808 165.877 320.907C166.293 321.005 166.674 321.168 167.019 321.396C167.363 321.619 167.64 321.924 167.848 322.31C168.06 322.697 168.166 323.18 168.166 323.759V329.6H166.189V328.401H166.121C165.996 328.644 165.82 328.871 165.593 329.083C165.369 329.291 165.087 329.46 164.746 329.589C164.409 329.714 164.013 329.776 163.558 329.776ZM164.093 328.265C164.505 328.265 164.863 328.183 165.166 328.021C165.469 327.854 165.702 327.634 165.865 327.361C166.032 327.089 166.115 326.791 166.115 326.469V325.441C166.051 325.494 165.941 325.543 165.786 325.589C165.634 325.634 165.464 325.674 165.274 325.708C165.085 325.742 164.897 325.772 164.712 325.799C164.526 325.825 164.365 325.848 164.229 325.867C163.922 325.909 163.647 325.977 163.405 326.072C163.163 326.166 162.971 326.299 162.831 326.469C162.691 326.636 162.621 326.852 162.621 327.117C162.621 327.496 162.759 327.782 163.036 327.975C163.312 328.168 163.664 328.265 164.093 328.265ZM177.132 323.18L175.257 323.384C175.204 323.195 175.111 323.017 174.979 322.85C174.85 322.683 174.676 322.549 174.456 322.447C174.236 322.344 173.968 322.293 173.649 322.293C173.221 322.293 172.861 322.386 172.57 322.572C172.282 322.757 172.14 322.998 172.144 323.293C172.14 323.547 172.233 323.754 172.422 323.913C172.615 324.072 172.933 324.202 173.377 324.305L174.865 324.623C175.691 324.801 176.305 325.083 176.706 325.469C177.111 325.856 177.316 326.361 177.32 326.986C177.316 327.536 177.155 328.021 176.837 328.441C176.522 328.858 176.085 329.183 175.524 329.418C174.964 329.653 174.32 329.771 173.593 329.771C172.524 329.771 171.664 329.547 171.013 329.1C170.361 328.649 169.973 328.022 169.848 327.219L171.854 327.026C171.945 327.42 172.138 327.718 172.433 327.918C172.729 328.119 173.113 328.219 173.587 328.219C174.075 328.219 174.468 328.119 174.763 327.918C175.062 327.718 175.212 327.469 175.212 327.174C175.212 326.924 175.115 326.718 174.922 326.555C174.733 326.392 174.437 326.267 174.036 326.18L172.547 325.867C171.71 325.693 171.091 325.399 170.689 324.986C170.288 324.57 170.089 324.043 170.093 323.407C170.089 322.869 170.235 322.403 170.53 322.009C170.829 321.611 171.244 321.305 171.774 321.089C172.308 320.869 172.924 320.759 173.621 320.759C174.644 320.759 175.449 320.977 176.036 321.413C176.627 321.848 176.992 322.437 177.132 323.18ZM183.374 320.873V322.464H178.357V320.873H183.374ZM179.595 318.782H181.652V326.975C181.652 327.252 181.694 327.464 181.777 327.611C181.864 327.755 181.978 327.854 182.118 327.907C182.258 327.96 182.414 327.986 182.584 327.986C182.713 327.986 182.83 327.977 182.936 327.958C183.046 327.939 183.129 327.922 183.186 327.907L183.533 329.515C183.423 329.553 183.266 329.594 183.061 329.64C182.86 329.685 182.614 329.712 182.323 329.719C181.807 329.735 181.343 329.657 180.931 329.486C180.518 329.312 180.19 329.043 179.948 328.68C179.709 328.316 179.592 327.861 179.595 327.316V318.782ZM189.063 329.6V320.873H191.029V322.356H191.131C191.313 321.856 191.614 321.466 192.034 321.185C192.455 320.901 192.957 320.759 193.54 320.759C194.131 320.759 194.629 320.903 195.034 321.191C195.443 321.475 195.731 321.863 195.898 322.356H195.989C196.182 321.871 196.508 321.485 196.966 321.197C197.428 320.905 197.976 320.759 198.608 320.759C199.411 320.759 200.066 321.013 200.574 321.521C201.082 322.028 201.335 322.769 201.335 323.742V329.6H199.273V324.06C199.273 323.519 199.129 323.123 198.841 322.873C198.553 322.619 198.201 322.492 197.784 322.492C197.288 322.492 196.9 322.647 196.619 322.958C196.343 323.265 196.205 323.664 196.205 324.157V329.6H194.188V323.975C194.188 323.524 194.051 323.164 193.779 322.896C193.51 322.627 193.157 322.492 192.722 322.492C192.426 322.492 192.157 322.568 191.915 322.719C191.673 322.867 191.479 323.077 191.335 323.35C191.191 323.619 191.119 323.933 191.119 324.293V329.6H189.063ZM207.229 329.771C206.377 329.771 205.638 329.583 205.013 329.208C204.388 328.833 203.903 328.308 203.558 327.634C203.218 326.96 203.047 326.172 203.047 325.271C203.047 324.369 203.218 323.579 203.558 322.901C203.903 322.223 204.388 321.697 205.013 321.322C205.638 320.947 206.377 320.759 207.229 320.759C208.081 320.759 208.82 320.947 209.445 321.322C210.07 321.697 210.553 322.223 210.894 322.901C211.238 323.579 211.411 324.369 211.411 325.271C211.411 326.172 211.238 326.96 210.894 327.634C210.553 328.308 210.07 328.833 209.445 329.208C208.82 329.583 208.081 329.771 207.229 329.771ZM207.24 328.123C207.702 328.123 208.089 327.996 208.399 327.742C208.71 327.485 208.941 327.14 209.093 326.708C209.248 326.276 209.325 325.795 209.325 325.265C209.325 324.731 209.248 324.248 209.093 323.816C208.941 323.38 208.71 323.034 208.399 322.776C208.089 322.519 207.702 322.39 207.24 322.39C206.767 322.39 206.373 322.519 206.058 322.776C205.748 323.034 205.515 323.38 205.36 323.816C205.208 324.248 205.132 324.731 205.132 325.265C205.132 325.795 205.208 326.276 205.36 326.708C205.515 327.14 205.748 327.485 206.058 327.742C206.373 327.996 206.767 328.123 207.24 328.123ZM215.213 324.486V329.6H213.156V320.873H215.122V322.356H215.225C215.425 321.867 215.745 321.479 216.185 321.191C216.628 320.903 217.175 320.759 217.827 320.759C218.429 320.759 218.954 320.888 219.401 321.146C219.852 321.403 220.2 321.776 220.446 322.265C220.696 322.754 220.819 323.346 220.816 324.043V329.6H218.759V324.361C218.759 323.778 218.607 323.322 218.304 322.992C218.005 322.663 217.59 322.498 217.06 322.498C216.7 322.498 216.38 322.577 216.1 322.736C215.823 322.892 215.605 323.117 215.446 323.413C215.291 323.708 215.213 324.066 215.213 324.486ZM227.264 320.873V322.464H222.247V320.873H227.264ZM223.486 318.782H225.543V326.975C225.543 327.252 225.584 327.464 225.668 327.611C225.755 327.755 225.869 327.854 226.009 327.907C226.149 327.96 226.304 327.986 226.475 327.986C226.603 327.986 226.721 327.977 226.827 327.958C226.937 327.939 227.02 327.922 227.077 327.907L227.423 329.515C227.314 329.553 227.156 329.594 226.952 329.64C226.751 329.685 226.505 329.712 226.213 329.719C225.698 329.735 225.234 329.657 224.821 329.486C224.408 329.312 224.081 329.043 223.838 328.68C223.6 328.316 223.482 327.861 223.486 327.316V318.782ZM231.229 324.486V329.6H229.172V317.964H231.183V322.356H231.286C231.49 321.863 231.807 321.475 232.235 321.191C232.666 320.903 233.216 320.759 233.882 320.759C234.488 320.759 235.017 320.886 235.468 321.14C235.918 321.394 236.267 321.765 236.513 322.254C236.763 322.742 236.888 323.339 236.888 324.043V329.6H234.831V324.361C234.831 323.774 234.68 323.318 234.377 322.992C234.077 322.663 233.657 322.498 233.115 322.498C232.752 322.498 232.426 322.577 232.138 322.736C231.854 322.892 231.63 323.117 231.468 323.413C231.308 323.708 231.229 324.066 231.229 324.486Z" fill="#40AACD"/>
</g>
<defs>
<filter id="filter0_d_176_238" x="-0.000391006" y="9.72748e-05" width="317.2" height="440.2" filterUnits="userSpaceOnUse" color-interpolation-filters="sRGB">
<feFlood flood-opacity="0" result="BackgroundImageFix"/>
<feColorMatrix in="SourceAlpha" type="matrix" values="0 0 0 0 0 0 0 0 0 0 0 0 0 0 0 0 0 0 127 0" result="hardAlpha"/>
<feOffset dy="23"/>
<feGaussianBlur stdDeviation="14.3"/>
<feComposite in2="hardAlpha" operator="out"/>
<feColorMatrix type="matrix" values="0 0 0 0 0 0 0 0 0 0 0 0 0 0 0 0 0 0 0.03 0"/>
<feBlend mode="normal" in2="BackgroundImageFix" result="effect1_dropShadow_176_238"/>
<feBlend mode="normal" in="SourceGraphic" in2="effect1_dropShadow_176_238" result="shape"/>
</filter>
<clipPath id="paint0_diamond_176_238_clip_path"><path d="M85.1573 65.6001H80.5167V52.5092H85.1957C86.5124 52.5092 87.646 52.7713 88.5962 53.2954C89.5465 53.8153 90.2773 54.5632 90.7887 55.539C91.3043 56.5149 91.5621 57.6825 91.5621 59.0419C91.5621 60.4055 91.3043 61.5774 90.7887 62.5575C90.2773 63.5376 89.5423 64.2897 88.5835 64.8139C87.6289 65.338 86.4869 65.6001 85.1573 65.6001ZM83.2844 63.2286H85.0423C85.8604 63.2286 86.5487 63.0838 87.1069 62.794C87.6694 62.5 88.0913 62.0461 88.3725 61.4325C88.658 60.8146 88.8008 60.0177 88.8008 59.0419C88.8008 58.0745 88.658 57.284 88.3725 56.6704C88.0913 56.0568 87.6715 55.6051 87.1133 55.3153C86.555 55.0255 85.8668 54.8806 85.0487 54.8806H83.2844V63.2286ZM96.361 65.7855C95.7346 65.7855 95.1763 65.6768 94.6863 65.4595C94.1962 65.2379 93.8084 64.9119 93.5229 64.4815C93.2417 64.0468 93.101 63.5056 93.101 62.8579C93.101 62.3125 93.2012 61.8544 93.4015 61.4836C93.6017 61.1129 93.8745 60.8146 94.2196 60.5887C94.5648 60.3629 94.9569 60.1924 95.3958 60.0774C95.839 59.9623 96.3034 59.8813 96.7892 59.8345C97.3603 59.7748 97.8205 59.7194 98.1699 59.6683C98.5194 59.6129 98.7729 59.5319 98.9306 59.4254C99.0882 59.3188 99.1671 59.1612 99.1671 58.9524V58.914C99.1671 58.5092 99.0392 58.196 98.7836 57.9744C98.5321 57.7528 98.1742 57.642 97.7097 57.642C97.2196 57.642 96.8297 57.7507 96.54 57.968C96.2502 58.1811 96.0584 58.4495 95.9647 58.7734L93.4462 58.5688C93.574 57.9723 93.8255 57.4566 94.2005 57.022C94.5755 56.5831 95.0591 56.2464 95.6515 56.012C96.248 55.7734 96.9384 55.6541 97.7225 55.6541C98.2679 55.6541 98.79 55.718 99.2885 55.8458C99.7914 55.9737 100.237 56.1718 100.624 56.4403C101.017 56.7088 101.325 57.0539 101.551 57.4758C101.777 57.8934 101.89 58.3941 101.89 58.9779V65.6001H99.3077V64.2386H99.231C99.0733 64.5454 98.8624 64.816 98.5982 65.0504C98.334 65.2805 98.0165 65.4616 97.6458 65.5937C97.275 65.7215 96.8468 65.7855 96.361 65.7855ZM97.1408 63.9062C97.5414 63.9062 97.8951 63.8274 98.2019 63.6697C98.5087 63.5078 98.7495 63.2904 98.9242 63.0177C99.0989 62.745 99.1863 62.436 99.1863 62.0909V61.049C99.101 61.1044 98.9838 61.1555 98.8347 61.2024C98.6898 61.245 98.5257 61.2855 98.3425 61.3238C98.1593 61.3579 97.976 61.3899 97.7928 61.4197C97.6096 61.4453 97.4434 61.4687 97.2942 61.49C96.9746 61.5369 96.6955 61.6115 96.4569 61.7137C96.2182 61.816 96.0328 61.9545 95.9007 62.1292C95.7686 62.2997 95.7026 62.5127 95.7026 62.7684C95.7026 63.1392 95.8368 63.4225 96.1053 63.6186C96.378 63.8103 96.7232 63.9062 97.1408 63.9062ZM109.225 55.7819V57.8274H103.312V55.7819H109.225ZM104.655 53.4296H107.378V62.5831C107.378 62.8345 107.416 63.0305 107.493 63.1711C107.569 63.3075 107.676 63.4034 107.812 63.4588C107.953 63.5142 108.115 63.5419 108.298 63.5419C108.426 63.5419 108.554 63.5312 108.682 63.5099C108.809 63.4843 108.907 63.4652 108.976 63.4524L109.404 65.4786C109.268 65.5213 109.076 65.5703 108.829 65.6257C108.581 65.6853 108.281 65.7215 107.927 65.7343C107.271 65.7599 106.696 65.6725 106.202 65.4723C105.711 65.272 105.33 64.9609 105.057 64.539C104.785 64.1171 104.65 63.5845 104.655 62.941V53.4296ZM113.798 65.7855C113.172 65.7855 112.614 65.6768 112.124 65.4595C111.634 65.2379 111.246 64.9119 110.96 64.4815C110.679 64.0468 110.539 63.5056 110.539 62.8579C110.539 62.3125 110.639 61.8544 110.839 61.4836C111.039 61.1129 111.312 60.8146 111.657 60.5887C112.002 60.3629 112.394 60.1924 112.833 60.0774C113.276 59.9623 113.741 59.8813 114.227 59.8345C114.798 59.7748 115.258 59.7194 115.607 59.6683C115.957 59.6129 116.21 59.5319 116.368 59.4254C116.526 59.3188 116.605 59.1612 116.605 58.9524V58.914C116.605 58.5092 116.477 58.196 116.221 57.9744C115.97 57.7528 115.612 57.642 115.147 57.642C114.657 57.642 114.267 57.7507 113.977 57.968C113.688 58.1811 113.496 58.4495 113.402 58.7734L110.884 58.5688C111.012 57.9723 111.263 57.4566 111.638 57.022C112.013 56.5831 112.497 56.2464 113.089 56.012C113.686 55.7734 114.376 55.6541 115.16 55.6541C115.705 55.6541 116.227 55.718 116.726 55.8458C117.229 55.9737 117.674 56.1718 118.062 56.4403C118.454 56.7088 118.763 57.0539 118.989 57.4758C119.215 57.8934 119.328 58.3941 119.328 58.9779V65.6001H116.745V64.2386H116.669C116.511 64.5454 116.3 64.816 116.036 65.0504C115.771 65.2805 115.454 65.4616 115.083 65.5937C114.713 65.7215 114.284 65.7855 113.798 65.7855ZM114.578 63.9062C114.979 63.9062 115.333 63.8274 115.639 63.6697C115.946 63.5078 116.187 63.2904 116.362 63.0177C116.536 62.745 116.624 62.436 116.624 62.0909V61.049C116.539 61.1044 116.421 61.1555 116.272 61.2024C116.127 61.245 115.963 61.2855 115.78 61.3238C115.597 61.3579 115.414 61.3899 115.23 61.4197C115.047 61.4453 114.881 61.4687 114.732 61.49C114.412 61.5369 114.133 61.6115 113.894 61.7137C113.656 61.816 113.47 61.9545 113.338 62.1292C113.206 62.2997 113.14 62.5127 113.14 62.7684C113.14 63.1392 113.274 63.4225 113.543 63.6186C113.816 63.8103 114.161 63.9062 114.578 63.9062ZM130.598 61.049H132.951L134.133 62.5703L135.297 63.9254L137.489 66.674H134.907L133.398 64.8203L132.625 63.7208L130.598 61.049ZM137.687 59.0546C137.687 60.4822 137.417 61.6967 136.875 62.6981C136.338 63.6995 135.605 64.4644 134.676 64.9929C133.752 65.517 132.712 65.7791 131.557 65.7791C130.394 65.7791 129.35 65.5149 128.425 64.9865C127.5 64.4581 126.77 63.6931 126.233 62.6917C125.696 61.6903 125.427 60.4779 125.427 59.0546C125.427 57.6271 125.696 56.4126 126.233 55.4112C126.77 54.4098 127.5 53.647 128.425 53.1228C129.35 52.5944 130.394 52.3302 131.557 52.3302C132.712 52.3302 133.752 52.5944 134.676 53.1228C135.605 53.647 136.338 54.4098 136.875 55.4112C137.417 56.4126 137.687 57.6271 137.687 59.0546ZM134.881 59.0546C134.881 58.1299 134.743 57.3501 134.466 56.7152C134.193 56.0802 133.807 55.5987 133.309 55.2706C132.81 54.9424 132.226 54.7784 131.557 54.7784C130.888 54.7784 130.304 54.9424 129.806 55.2706C129.307 55.5987 128.919 56.0802 128.642 56.7152C128.37 57.3501 128.233 58.1299 128.233 59.0546C128.233 59.9794 128.37 60.7592 128.642 61.3941C128.919 62.0291 129.307 62.5106 129.806 62.8387C130.304 63.1669 130.888 63.3309 131.557 63.3309C132.226 63.3309 132.81 63.1669 133.309 62.8387C133.807 62.5106 134.193 62.0291 134.466 61.3941C134.743 60.7592 134.881 59.9794 134.881 59.0546ZM145.982 61.4197V55.7819H148.705V65.6001H146.091V63.8167H145.989C145.767 64.392 145.399 64.8544 144.883 65.2038C144.372 65.5532 143.747 65.7279 143.01 65.7279C142.354 65.7279 141.776 65.5788 141.278 65.2805C140.779 64.9822 140.389 64.5582 140.108 64.0085C139.831 63.4588 139.691 62.8004 139.686 62.0333V55.7819H142.409V61.5475C142.414 62.1271 142.569 62.5852 142.876 62.9218C143.183 63.2585 143.594 63.4268 144.11 63.4268C144.438 63.4268 144.744 63.3522 145.03 63.2031C145.316 63.0497 145.546 62.8238 145.72 62.5255C145.899 62.2272 145.987 61.8586 145.982 61.4197ZM153.683 65.7855C153.057 65.7855 152.499 65.6768 152.009 65.4595C151.518 65.2379 151.131 64.9119 150.845 64.4815C150.564 64.0468 150.423 63.5056 150.423 62.8579C150.423 62.3125 150.523 61.8544 150.724 61.4836C150.924 61.1129 151.197 60.8146 151.542 60.5887C151.887 60.3629 152.279 60.1924 152.718 60.0774C153.161 59.9623 153.626 59.8813 154.112 59.8345C154.683 59.7748 155.143 59.7194 155.492 59.6683C155.842 59.6129 156.095 59.5319 156.253 59.4254C156.411 59.3188 156.489 59.1612 156.489 58.9524V58.914C156.489 58.5092 156.362 58.196 156.106 57.9744C155.854 57.7528 155.496 57.642 155.032 57.642C154.542 57.642 154.152 57.7507 153.862 57.968C153.572 58.1811 153.381 58.4495 153.287 58.7734L150.768 58.5688C150.896 57.9723 151.148 57.4566 151.523 57.022C151.898 56.5831 152.381 56.2464 152.974 56.012C153.57 55.7734 154.261 55.6541 155.045 55.6541C155.59 55.6541 156.112 55.718 156.611 55.8458C157.114 55.9737 157.559 56.1718 157.947 56.4403C158.339 56.7088 158.648 57.0539 158.874 57.4758C159.099 57.8934 159.212 58.3941 159.212 58.9779V65.6001H156.63V64.2386H156.553C156.396 64.5454 156.185 64.816 155.92 65.0504C155.656 65.2805 155.339 65.4616 154.968 65.5937C154.597 65.7215 154.169 65.7855 153.683 65.7855ZM154.463 63.9062C154.864 63.9062 155.217 63.8274 155.524 63.6697C155.831 63.5078 156.072 63.2904 156.246 63.0177C156.421 62.745 156.509 62.436 156.509 62.0909V61.049C156.423 61.1044 156.306 61.1555 156.157 61.2024C156.012 61.245 155.848 61.2855 155.665 61.3238C155.482 61.3579 155.298 61.3899 155.115 61.4197C154.932 61.4453 154.766 61.4687 154.616 61.49C154.297 61.5369 154.018 61.6115 153.779 61.7137C153.54 61.816 153.355 61.9545 153.223 62.1292C153.091 62.2997 153.025 62.5127 153.025 62.7684C153.025 63.1392 153.159 63.4225 153.428 63.6186C153.7 63.8103 154.045 63.9062 154.463 63.9062ZM164.048 52.5092V65.6001H161.325V52.5092H164.048ZM166.229 65.6001V55.7819H168.952V65.6001H166.229ZM167.597 54.5163C167.192 54.5163 166.845 54.3821 166.555 54.1136C166.27 53.8409 166.127 53.5149 166.127 53.1356C166.127 52.7606 166.27 52.4389 166.555 52.1704C166.845 51.8977 167.192 51.7613 167.597 51.7613C168.002 51.7613 168.347 51.8977 168.633 52.1704C168.922 52.4389 169.067 52.7606 169.067 53.1356C169.067 53.5149 168.922 53.8409 168.633 54.1136C168.347 54.3821 168.002 54.5163 167.597 54.5163ZM176.356 55.7819V57.8274H170.443V55.7819H176.356ZM171.786 53.4296H174.509V62.5831C174.509 62.8345 174.547 63.0305 174.624 63.1711C174.7 63.3075 174.807 63.4034 174.943 63.4588C175.084 63.5142 175.246 63.5419 175.429 63.5419C175.557 63.5419 175.685 63.5312 175.812 63.5099C175.94 63.4843 176.038 63.4652 176.107 63.4524L176.535 65.4786C176.398 65.5213 176.207 65.5703 175.96 65.6257C175.712 65.6853 175.412 65.7215 175.058 65.7343C174.402 65.7599 173.827 65.6725 173.332 65.4723C172.842 65.272 172.461 64.9609 172.188 64.539C171.915 64.1171 171.781 63.5845 171.786 62.941V53.4296ZM179.811 69.2819C179.466 69.2819 179.142 69.2542 178.839 69.1988C178.541 69.1477 178.294 69.0816 178.098 69.0007L178.711 66.968C179.031 67.066 179.319 67.1193 179.574 67.1278C179.834 67.1363 180.058 67.0767 180.245 66.9488C180.437 66.821 180.593 66.6036 180.712 66.2968L180.872 65.8813L177.35 55.7819H180.213L182.246 62.9921H182.348L184.4 55.7819H187.283L183.467 66.6612C183.284 67.1896 183.034 67.6498 182.719 68.0419C182.408 68.4382 182.014 68.7429 181.537 68.9559C181.059 69.1733 180.484 69.2819 179.811 69.2819ZM199.995 56.2741C199.944 55.7585 199.725 55.3579 199.337 55.0724C198.949 54.7869 198.423 54.6441 197.758 54.6441C197.306 54.6441 196.925 54.7081 196.614 54.8359C196.303 54.9595 196.064 55.1321 195.898 55.3536C195.736 55.5752 195.655 55.8267 195.655 56.1079C195.646 56.3423 195.695 56.5468 195.802 56.7215C195.913 56.8963 196.064 57.0475 196.256 57.1754C196.448 57.299 196.669 57.4076 196.921 57.5014C197.172 57.5909 197.441 57.6676 197.726 57.7315L198.902 58.0127C199.473 58.1406 199.997 58.311 200.475 58.5241C200.952 58.7372 201.365 58.9992 201.715 59.3103C202.064 59.6214 202.335 59.9879 202.526 60.4098C202.722 60.8316 202.823 61.3153 202.827 61.8608C202.823 62.6619 202.618 63.3565 202.213 63.9446C201.813 64.5284 201.233 64.9822 200.475 65.3061C199.72 65.6257 198.811 65.7855 197.745 65.7855C196.688 65.7855 195.768 65.6235 194.984 65.2997C194.204 64.9758 193.595 64.4964 193.156 63.8615C192.721 63.2223 192.493 62.4318 192.472 61.49H195.15C195.18 61.9289 195.306 62.2954 195.527 62.5894C195.753 62.8792 196.053 63.0987 196.428 63.2478C196.808 63.3927 197.236 63.4652 197.713 63.4652C198.182 63.4652 198.589 63.397 198.934 63.2606C199.284 63.1242 199.554 62.9346 199.746 62.6917C199.938 62.4488 200.034 62.1697 200.034 61.8544C200.034 61.5603 199.946 61.3132 199.771 61.1129C199.601 60.9126 199.35 60.7421 199.017 60.6015C198.689 60.4609 198.286 60.3331 197.809 60.218L196.384 59.86C195.28 59.5916 194.409 59.1718 193.769 58.6008C193.13 58.0298 192.813 57.2606 192.817 56.2933C192.813 55.5007 193.024 54.8082 193.45 54.2159C193.88 53.6235 194.47 53.1612 195.22 52.8288C195.97 52.4964 196.823 52.3302 197.777 52.3302C198.749 52.3302 199.597 52.4964 200.321 52.8288C201.05 53.1612 201.617 53.6235 202.021 54.2159C202.426 54.8082 202.635 55.4943 202.648 56.2741H199.995ZM209.074 65.7919C208.068 65.7919 207.203 65.5788 206.478 65.1527C205.758 64.7223 205.204 64.1257 204.816 63.3629C204.433 62.6001 204.241 61.7223 204.241 60.7294C204.241 59.7237 204.435 58.8416 204.823 58.0831C205.215 57.3203 205.771 56.7258 206.491 56.2997C207.211 55.8693 208.068 55.6541 209.061 55.6541C209.917 55.6541 210.667 55.8096 211.311 56.1207C211.954 56.4318 212.463 56.8686 212.838 57.4311C213.213 57.9936 213.42 58.6541 213.458 59.4126H210.889C210.816 58.9225 210.625 58.5284 210.314 58.2301C210.007 57.9275 209.604 57.7762 209.105 57.7762C208.684 57.7762 208.315 57.8913 208 58.1214C207.689 58.3473 207.446 58.6775 207.271 59.1122C207.096 59.5468 207.009 60.0731 207.009 60.691C207.009 61.3174 207.094 61.8501 207.265 62.289C207.439 62.7279 207.684 63.0625 208 63.2926C208.315 63.5227 208.684 63.6377 209.105 63.6377C209.417 63.6377 209.696 63.5738 209.943 63.446C210.194 63.3181 210.401 63.1328 210.563 62.8899C210.729 62.6427 210.838 62.3465 210.889 62.0014H213.458C213.416 62.7514 213.211 63.4119 212.845 63.9829C212.483 64.5497 211.982 64.9929 211.343 65.3125C210.703 65.6321 209.947 65.7919 209.074 65.7919ZM219.638 65.7919C218.645 65.7919 217.786 65.5809 217.062 65.159C216.342 64.7329 215.786 64.1406 215.394 63.3821C215.002 62.6193 214.806 61.735 214.806 60.7294C214.806 59.7152 215.002 58.8288 215.394 58.0703C215.786 57.3075 216.342 56.7152 217.062 56.2933C217.786 55.8671 218.645 55.6541 219.638 55.6541C220.631 55.6541 221.487 55.8671 222.208 56.2933C222.932 56.7152 223.49 57.3075 223.882 58.0703C224.274 58.8288 224.47 59.7152 224.47 60.7294C224.47 61.735 224.274 62.6193 223.882 63.3821C223.49 64.1406 222.932 64.7329 222.208 65.159C221.487 65.5809 220.631 65.7919 219.638 65.7919ZM219.651 63.6825C220.102 63.6825 220.48 63.5546 220.782 63.299C221.085 63.039 221.313 62.6853 221.466 62.2379C221.624 61.7904 221.703 61.2812 221.703 60.7102C221.703 60.1392 221.624 59.6299 221.466 59.1825C221.313 58.735 221.085 58.3813 220.782 58.1214C220.48 57.8615 220.102 57.7315 219.651 57.7315C219.195 57.7315 218.811 57.8615 218.5 58.1214C218.193 58.3813 217.961 58.735 217.803 59.1825C217.65 59.6299 217.573 60.1392 217.573 60.7102C217.573 61.2812 217.65 61.7904 217.803 62.2379C217.961 62.6853 218.193 63.039 218.5 63.299C218.811 63.5546 219.195 63.6825 219.651 63.6825ZM226.241 65.6001V55.7819H228.881V57.495H228.983C229.162 56.8856 229.463 56.4254 229.884 56.1143C230.306 55.799 230.792 55.6413 231.342 55.6413C231.478 55.6413 231.625 55.6498 231.783 55.6669C231.941 55.6839 232.079 55.7073 232.198 55.7372V58.1534C232.07 58.115 231.894 58.0809 231.668 58.0511C231.442 58.0213 231.235 58.0063 231.048 58.0063C230.647 58.0063 230.289 58.0937 229.974 58.2684C229.663 58.4389 229.416 58.6775 229.232 58.9843C229.053 59.2911 228.964 59.6448 228.964 60.0454V65.6001H226.241ZM237.624 65.7919C236.614 65.7919 235.744 65.5873 235.016 65.1782C234.291 64.7649 233.733 64.1811 233.341 63.4268C232.949 62.6683 232.753 61.7713 232.753 60.7358C232.753 59.7258 232.949 58.8394 233.341 58.0767C233.733 57.3139 234.285 56.7194 234.996 56.2933C235.712 55.8671 236.552 55.6541 237.515 55.6541C238.163 55.6541 238.766 55.7585 239.324 55.9673C239.886 56.1718 240.376 56.4808 240.794 56.8941C241.216 57.3075 241.544 57.8274 241.778 58.4538C242.013 59.0759 242.13 59.8046 242.13 60.6399V61.3877H233.839V59.7002H239.567C239.567 59.3082 239.482 58.9609 239.311 58.6583C239.141 58.3558 238.904 58.1193 238.602 57.9488C238.303 57.7741 237.956 57.6867 237.56 57.6867C237.146 57.6867 236.78 57.7826 236.46 57.9744C236.145 58.1619 235.898 58.4154 235.719 58.735C235.54 59.0504 235.448 59.4019 235.444 59.7897V61.3941C235.444 61.8799 235.533 62.2997 235.712 62.6534C235.896 63.0071 236.153 63.2798 236.486 63.4715C236.818 63.6633 237.212 63.7592 237.668 63.7592C237.971 63.7592 238.248 63.7166 238.499 63.6313C238.751 63.5461 238.966 63.4183 239.145 63.2478C239.324 63.0774 239.46 62.8686 239.554 62.6214L242.072 62.7876C241.945 63.3927 241.683 63.9211 241.286 64.3728C240.894 64.8203 240.387 65.1697 239.765 65.4211C239.147 65.6683 238.433 65.7919 237.624 65.7919Z"/></clipPath><clipPath id="paint2_diamond_176_238_clip_path"><path d="M132.195 151.06C133.541 151.06 134.837 151.286 136.081 151.738C137.334 152.19 138.45 152.91 139.431 153.898C140.419 154.887 141.199 156.2 141.77 157.836C142.35 159.464 142.644 161.462 142.652 163.832C142.652 166.056 142.401 168.042 141.898 169.789C141.404 171.528 140.692 173.006 139.763 174.225C138.834 175.444 137.713 176.373 136.401 177.012C135.088 177.643 133.622 177.958 132.003 177.958C130.256 177.958 128.713 177.621 127.375 176.948C126.037 176.266 124.959 175.342 124.141 174.174C123.331 172.998 122.841 171.677 122.671 170.211H128.129C128.343 171.165 128.79 171.907 129.472 172.435C130.154 172.955 130.997 173.215 132.003 173.215C133.708 173.215 135.003 172.474 135.889 170.991C136.776 169.499 137.223 167.458 137.232 164.867H137.053C136.661 165.634 136.132 166.295 135.468 166.849C134.803 167.394 134.04 167.816 133.179 168.114C132.327 168.413 131.419 168.562 130.456 168.562C128.914 168.562 127.537 168.2 126.327 167.475C125.117 166.751 124.162 165.754 123.463 164.484C122.764 163.214 122.415 161.765 122.415 160.137C122.406 158.381 122.811 156.817 123.629 155.445C124.448 154.073 125.59 152.999 127.056 152.224C128.53 151.44 130.243 151.052 132.195 151.06ZM132.233 155.407C131.372 155.407 130.605 155.611 129.932 156.021C129.267 156.43 128.739 156.979 128.347 157.67C127.963 158.36 127.776 159.131 127.784 159.984C127.784 160.844 127.972 161.62 128.347 162.31C128.73 162.992 129.25 163.538 129.906 163.947C130.571 164.347 131.33 164.548 132.182 164.548C132.821 164.548 133.414 164.428 133.959 164.19C134.504 163.951 134.977 163.623 135.378 163.205C135.787 162.779 136.107 162.289 136.337 161.735C136.567 161.181 136.682 160.593 136.682 159.971C136.673 159.144 136.477 158.386 136.094 157.695C135.71 157.005 135.182 156.451 134.509 156.033C133.835 155.616 133.077 155.407 132.233 155.407ZM146.82 177.6L157.673 156.123V155.944H145.03V151.418H163.401V156.008L152.534 177.6H146.82ZM181.525 172.691V171.31C181.525 170.262 181.747 169.299 182.19 168.421C182.642 167.535 183.294 166.827 184.146 166.299C185.007 165.762 186.055 165.494 187.291 165.494C188.544 165.494 189.596 165.758 190.449 166.286C191.309 166.815 191.957 167.522 192.392 168.408C192.835 169.286 193.057 170.254 193.057 171.31V172.691C193.057 173.739 192.835 174.707 192.392 175.593C191.949 176.471 191.297 177.174 190.436 177.702C189.575 178.239 188.527 178.508 187.291 178.508C186.038 178.508 184.986 178.239 184.133 177.702C183.281 177.174 182.633 176.471 182.19 175.593C181.747 174.707 181.525 173.739 181.525 172.691ZM185.246 171.31V172.691C185.246 173.296 185.39 173.867 185.68 174.404C185.979 174.941 186.515 175.209 187.291 175.209C188.067 175.209 188.595 174.945 188.876 174.417C189.166 173.888 189.311 173.313 189.311 172.691V171.31C189.311 170.688 189.175 170.109 188.902 169.572C188.629 169.035 188.092 168.766 187.291 168.766C186.524 168.766 185.991 169.035 185.693 169.572C185.395 170.109 185.246 170.688 185.246 171.31ZM168.089 157.708V156.327C168.089 155.271 168.315 154.303 168.767 153.425C169.219 152.539 169.871 151.832 170.723 151.303C171.584 150.775 172.623 150.511 173.842 150.511C175.104 150.511 176.16 150.775 177.013 151.303C177.865 151.832 178.513 152.539 178.956 153.425C179.399 154.303 179.621 155.271 179.621 156.327V157.708C179.621 158.765 179.395 159.732 178.943 160.61C178.5 161.488 177.848 162.191 176.987 162.719C176.135 163.239 175.086 163.499 173.842 163.499C172.598 163.499 171.545 163.235 170.684 162.707C169.832 162.17 169.184 161.467 168.741 160.597C168.307 159.719 168.089 158.756 168.089 157.708ZM171.835 156.327V157.708C171.835 158.33 171.98 158.905 172.27 159.434C172.568 159.962 173.092 160.227 173.842 160.227C174.626 160.227 175.159 159.962 175.44 159.434C175.73 158.905 175.875 158.33 175.875 157.708V156.327C175.875 155.705 175.738 155.126 175.466 154.589C175.193 154.052 174.652 153.783 173.842 153.783C173.084 153.783 172.559 154.056 172.27 154.602C171.98 155.147 171.835 155.722 171.835 156.327ZM169.777 177.6L187.777 151.418H191.126L173.126 177.6H169.777Z"/></clipPath><linearGradient id="paint0_diamond_176_238" x1="0" y1="0" x2="500" y2="500" gradientUnits="userSpaceOnUse">
<stop offset="0.580502" stop-color="#1A3C6E"/>
<stop offset="1" stop-color="#40AACD"/>
</linearGradient>
<linearGradient id="paint1_linear_176_238" x1="161.412" y1="83.6001" x2="160.787" y2="240.6" gradientUnits="userSpaceOnUse">
<stop stop-color="#40AACD"/>
<stop offset="1" stop-color="#006E92"/>
</linearGradient>
<linearGradient id="paint2_diamond_176_238" x1="0" y1="0" x2="500" y2="500" gradientUnits="userSpaceOnUse">
<stop offset="0.366351" stop-color="#1A3C6E"/>
</linearGradient>
<linearGradient id="paint3_linear_176_238" x1="63.5996" y1="277.1" x2="258.6" y2="277.1" gradientUnits="userSpaceOnUse">
<stop stop-color="#163057"/>
</linearGradient>
</defs>
</svg>
